<svg width="34" height="34" viewBox="0 0 34 34" fill="none" xmlns="http://www.w3.org/2000/svg">
<path d="M17 0.966064C8.159 0.966064 0.965 8.15806 0.965 17.0001C0.965 25.8421 8.159 33.0341 17 33.0341C25.841 33.0341 33.035 25.8421 33.035 17.0001C33.035 8.15806 25.841 0.966064 17 0.966064ZM17 31.9661C8.748 31.9661 2.035 25.2521 2.035 17.0001C2.035 8.74806 8.748 2.03406 17 2.03406C25.252 2.03406 31.965 8.74806 31.965 17.0001C31.965 25.2521 25.252 31.9661 17 31.9661Z" fill="#F8F8F8"/>
<path d="M25.794 12.0461C25.9049 11.8407 25.9963 11.6255 26.067 11.4031C26.0997 11.2999 26.1004 11.1892 26.0689 11.0857C26.0374 10.9821 25.9753 10.8906 25.8907 10.8231C25.806 10.7556 25.703 10.7154 25.595 10.7077C25.4871 10.7 25.3793 10.7252 25.286 10.7801C24.7736 11.0845 24.2189 11.3113 23.64 11.4531C22.9373 10.8188 22.0246 10.4672 21.078 10.4661C20.5637 10.4665 20.0548 10.5707 19.5818 10.7725C19.1088 10.9744 18.6814 11.2696 18.3252 11.6406C17.9691 12.0116 17.6915 12.4507 17.5091 12.9316C17.3268 13.4125 17.2434 13.9252 17.264 14.4391C15.015 14.1559 12.9613 13.0179 11.529 11.2611C11.4741 11.1945 11.404 11.1422 11.3246 11.1085C11.2451 11.0749 11.1587 11.0609 11.0728 11.0678C10.9868 11.0746 10.9037 11.1022 10.8306 11.148C10.7575 11.1938 10.6966 11.2566 10.653 11.3311C10.325 11.894 10.1468 12.5316 10.1352 13.183C10.1236 13.8344 10.2792 14.4779 10.587 15.0521C10.5115 15.0648 10.439 15.0912 10.373 15.1301C10.2921 15.1816 10.2256 15.2527 10.1794 15.3368C10.1333 15.4208 10.1091 15.5152 10.109 15.6111C10.109 16.7461 10.614 17.7881 11.428 18.4961L11.393 18.5311C11.3315 18.6006 11.2893 18.6849 11.2703 18.7757C11.2514 18.8666 11.2564 18.9608 11.285 19.0491C11.4547 19.5786 11.7382 20.0646 12.1154 20.4731C12.4927 20.8817 12.9546 21.2028 13.469 21.4141C12.4126 21.9294 11.2304 22.1304 10.063 21.9931C9.943 21.9808 9.82234 22.0088 9.71992 22.0725C9.61749 22.1362 9.53909 22.232 9.497 22.3451C9.45658 22.4589 9.45582 22.5831 9.49485 22.6975C9.53387 22.8118 9.6104 22.9097 9.712 22.9751C11.299 23.9936 13.1453 24.5347 15.031 24.5341C21.211 24.5341 24.905 19.5141 24.905 14.6611L24.904 14.4971C25.5029 14.0295 26.0232 13.4691 26.445 12.8371C26.5089 12.7415 26.5403 12.6279 26.5346 12.5132C26.5289 12.3984 26.4864 12.2885 26.4133 12.1997C26.3403 12.111 26.2406 12.0481 26.1291 12.0205C26.0175 11.9928 25.9 12.0018 25.794 12.0461V12.0461ZM24.049 13.8011C23.9764 13.8532 23.9181 13.9228 23.8793 14.0033C23.8405 14.0838 23.8225 14.1728 23.827 14.2621C23.833 14.3941 23.836 14.5281 23.836 14.6601C23.836 18.9881 20.543 23.4651 15.032 23.4651C14.0491 23.4655 13.0731 23.3005 12.145 22.9771C13.2566 22.764 14.3008 22.2874 15.19 21.5871C15.2766 21.5188 15.3399 21.4255 15.3714 21.3199C15.4029 21.2143 15.4011 21.1015 15.366 20.997C15.331 20.8925 15.2646 20.8013 15.1758 20.736C15.087 20.6707 14.9802 20.6344 14.87 20.6321C14.4388 20.6238 14.0156 20.5144 13.6345 20.3125C13.2534 20.1107 12.9251 19.8221 12.676 19.4701C12.929 19.4531 13.177 19.4111 13.418 19.3461C13.5346 19.3148 13.6373 19.245 13.7091 19.148C13.781 19.0509 13.8178 18.9324 13.8136 18.8117C13.8094 18.6911 13.7645 18.5754 13.6861 18.4835C13.6077 18.3917 13.5005 18.3291 13.382 18.3061C12.895 18.207 12.4441 17.9774 12.0776 17.6419C11.711 17.3063 11.4426 16.8774 11.301 16.4011C11.567 16.4681 11.84 16.5071 12.113 16.5161C12.348 16.5151 12.566 16.3711 12.639 16.1451C12.712 15.9191 12.626 15.6701 12.427 15.5381C11.9565 15.2246 11.5942 14.7735 11.3896 14.2464C11.185 13.7193 11.1482 13.1419 11.284 12.5931C13.021 14.3754 15.3666 15.4367 17.852 15.5651C18.028 15.5661 18.182 15.5031 18.289 15.3741C18.396 15.2451 18.437 15.0741 18.399 14.9101C18.2622 14.3211 18.3234 13.7034 18.5731 13.1527C18.8227 12.6019 19.2469 12.1489 19.78 11.8635C20.3131 11.5782 20.9254 11.4765 21.5221 11.5742C22.1189 11.6719 22.6667 11.9636 23.081 12.4041C23.1431 12.4703 23.221 12.5197 23.3074 12.5475C23.3939 12.5753 23.4859 12.5807 23.575 12.5631C23.74 12.5301 23.903 12.4921 24.064 12.4481C23.9914 12.5024 23.916 12.5528 23.838 12.5991C23.7343 12.6626 23.6553 12.7595 23.6141 12.8739C23.5729 12.9884 23.5719 13.1134 23.6113 13.2285C23.6506 13.3435 23.728 13.4417 23.8307 13.5069C23.9333 13.5721 24.0551 13.6004 24.176 13.5871L24.358 13.5641C24.2578 13.6466 24.1547 13.7257 24.049 13.8011V13.8011Z" fill="#F8F8F8"/>
</svg>
