<svg width="34" height="34" viewBox="0 0 34 34" fill="none" xmlns="http://www.w3.org/2000/svg">
<path d="M17 0.966064C8.159 0.966064 0.965 8.15806 0.965 17.0001C0.965 25.8421 8.159 33.0341 17 33.0341C25.841 33.0341 33.035 25.8421 33.035 17.0001C33.035 8.15806 25.841 0.966064 17 0.966064ZM17 31.9661C8.748 31.9661 2.035 25.2521 2.035 17.0001C2.035 8.74806 8.748 2.03406 17 2.03406C25.252 2.03406 31.965 8.74806 31.965 17.0001C31.965 25.2521 25.252 31.9661 17 31.9661Z" fill="#F8F8F8"/>
<path d="M20.5 8.00004H17.832C14.434 7.96604 14 10.069 14 12.345V14H12.5C12.4322 13.991 12.3632 13.9977 12.2984 14.0196C12.2336 14.0415 12.1748 14.0781 12.1264 14.1265C12.0781 14.1748 12.0415 14.2337 12.0196 14.2985C11.9976 14.3633 11.9909 14.4322 12 14.5V17.5C11.9909 17.5678 11.9976 17.6368 12.0196 17.7016C12.0415 17.7664 12.0781 17.8253 12.1264 17.8736C12.1748 17.922 12.2336 17.9586 12.2984 17.9805C12.3632 18.0024 12.4322 18.0091 12.5 18H14V25.5C13.9917 25.568 13.999 25.6369 14.0213 25.7016C14.0437 25.7662 14.0806 25.8249 14.1291 25.8732C14.1776 25.9214 14.2366 25.9579 14.3014 25.9799C14.3662 26.0019 14.4351 26.0088 14.503 26H17.558C17.853 26.034 18.092 25.795 17.998 25.5L18 18H20.5C20.5678 18.0091 20.6368 18.0024 20.7016 17.9805C20.7663 17.9586 20.8252 17.922 20.8736 17.8736C20.9219 17.8253 20.9585 17.7664 20.9804 17.7016C21.0024 17.6368 21.0091 17.5678 21 17.5V14.5C21.0091 14.4322 21.0024 14.3633 20.9804 14.2985C20.9585 14.2337 20.9219 14.1748 20.8736 14.1265C20.8252 14.0781 20.7663 14.0415 20.7016 14.0196C20.6368 13.9977 20.5678 13.991 20.5 14H17.997L18 12.5C18.097 11.861 18.097 11.965 18.69 12H20.479C20.618 11.969 20.766 11.986 20.87 11.885C20.974 11.784 21.034 11.646 20.999 11.5V8.50004C21.0082 8.4323 21.0017 8.36334 20.9799 8.29854C20.9581 8.23374 20.9216 8.17485 20.8733 8.12645C20.825 8.07806 20.7662 8.04147 20.7015 8.01955C20.6367 7.99762 20.5678 7.99095 20.5 8.00004V8.00004ZM19.965 10.944L18.711 10.896C17.158 10.896 17.028 11.739 17.028 12.602L17.024 14.498C17.0239 14.5683 17.0376 14.6378 17.0644 14.7027C17.0911 14.7676 17.1305 14.8266 17.1801 14.8763C17.2297 14.926 17.2886 14.9654 17.3534 14.9923C17.4183 15.0192 17.4878 15.033 17.558 15.033H20V16.965H17.56C17.4183 16.965 17.2824 17.0213 17.1821 17.1214C17.0817 17.2215 17.0253 17.3573 17.025 17.499L17.024 25H15V17.5C15 17.205 14.799 16.966 14.503 16.966H13V15.034H14.503C14.5732 15.0341 14.6427 15.0204 14.7075 14.9937C14.7724 14.9669 14.8313 14.9276 14.881 14.878C14.981 14.777 14.999 14.641 14.999 14.499V12.344C14.999 10.102 15.452 9.03404 17.831 9.03404H19.964V10.944H19.965Z" fill="#F8F8F8"/>
</svg>
